#!OML:ASF G:\JayActor3\Patient Classification 1\Patient 1\Session 2\male.ASF
:FULLY-SPECIFIED
:DEGREES
1833
root -32.9178 15.8481 -5.57313 1628.99 -78.9608 164.592
lowerback -1.76915 -0.26936 -3.04481
upperback 5.23574 -0.39515 1.55079
thorax 6.47422 -0.440975 3.29353
lowerneck -3.512 -3.41024 -1.20125
upperneck 22.3973 -10.3526 18.4325
head 8.60654 -4.0338 5.50872
rclavicle -1.84373e-014 7.95139e-016
rhumerus -42.1542 10.3818 -80.3193
rradius 21.3541
rwrist 4.56536
rhand -18.3671 3.12335
rfingers 7.12502
rthumb 7.91605 -26.7084
lclavicle -1.84373e-014 7.95139e-016
lhumerus -24.5228 -26.7628 69.2245
lradius 76.2982
lwrist 25.1313
lhand -16.966 14.0666
lfingers 7.12502
lthumb 9.26813 43.8429
rfemur -28.616 -9.97389 29.3479
rtibia 48.1083
rfoot -28.3609 -22.9986
rtoes 32.2521
lfemur -5.09171 12.6039 -17.4036
ltibia 66.914
lfoot -9.22367 -2.71793
ltoes -31.2695
1834
root -33.0524 15.8597 -5.57338 1627.11 -78.2197 166.618
lowerback -1.89259 -0.337248 -2.8845
upperback 5.24354 -0.500321 1.67317
thorax 6.56178 -0.49102 3.3235
lowerneck -3.53918 -3.37952 -1.0669
upperneck 22.3696 -10.3442 18.4361
head 8.59694 -4.02576 5.48435
rclavicle 7.55382e-015 2.22639e-014
rhumerus -41.2938 10.2013 -80.417
rradius 21.6441
rwrist 4.60401
rhand -18.7667 3.03635
rfingers 7.12502
rthumb 7.5303 -26.8096
lclavicle 7.55382e-015 2.22639e-014
lhumerus -25.8289 -26.8242 70.3379
lradius 73.7264
lwrist 24.8289
lhand -17.1581 14.6532
lfingers 7.12502
lthumb 9.08281 44.4376
rfemur -28.1639 -9.15041 29.5476
rtibia 48.1008
rfoot -28.6076 -22.915
rtoes 31.9935
lfemur -7.36824 11.6301 -17.4095
ltibia 68.4785
lfoot -9.5792 -2.38111
ltoes -31.1371
1835
root -33.1834 15.8754 -5.57222 1625.59 -77.3931 168.31
lowerback -2.00998 -0.388833 -2.7181
upperback 5.24334 -0.582551 1.76356
thorax 6.63482 -0.527765 3.31792
lowerneck -3.60407 -3.35123 -0.973599
upperneck 22.3732 -10.3456 18.4481
head 8.6087 -4.02136 5.46947
rclavicle -1.47598e-014 -7.95139e-015
rhumerus -40.4534 9.81338 -80.4651
rradius 22.0132
rwrist 4.50639
rhand -19.2519 2.93146
rfingers 7.12502
rthumb 7.06198 -26.9307
lclavicle -1.47598e-014 -7.95139e-015
lhumerus -27.0964 -26.8658 71.454
lradius 71.1559
lwrist 24.6859
lhand -17.1484 15.4084
lfingers 7.12502
lthumb 9.09217 45.1924
rfemur -27.7076 -8.34238 29.7096
rtibia 48.0243
rfoot -28.7619 -22.7348
rtoes 31.7331
lfemur -9.57373 10.5657 -17.4562
ltibia 69.5947
lfoot -9.97553 -2.15079
ltoes -31.1515
1836
root -33.3121 15.8959 -5.56868 1624.27 -76.468 169.822
lowerback -2.09501 -0.420043 -2.51063
upperback 5.23014 -0.639392 1.83315
thorax 6.67197 -0.548138 3.26916
lowerneck -3.69509 -3.32962 -0.937728
upperneck 22.4037 -10.3587 18.4658
head 8.63857 -4.02368 5.46593
rclavicle 1.88845e-015 -2.38542e-015
rhumerus -39.6757 9.26414 -80.4845
rradius 22.4744
rwrist 4.23594
rhand -19.8133 3.04308
rfingers 7.12502
rthumb 6.52004 -26.8366
lclavicle 1.88845e-015 -2.38542e-015
lhumerus -28.3536 -26.861 72.5923
lradius 68.5977
lwrist 24.6898
lhand -16.9897 16.2823
lfingers 7.12502
lthumb 9.2453 46.0596
rfemur -27.2202 -7.56573 29.8543
rtibia 47.8766
rfoot -28.7959 -22.4599
rtoes 31.4236
lfemur -11.6476 9.43178 -17.4888
ltibia 70.2541
lfoot -10.423 -2.00543
ltoes -31.2651
1837
root -33.439 15.9216 -5.5623 1623.13 -75.4361 171.16
lowerback -2.13539 -0.428265 -2.26067
upperback 5.19752 -0.667287 1.88475
thorax 6.65908 -0.550122 3.17986
lowerneck -3.79149 -3.31842 -0.970688
upperneck 22.4401 -10.3836 18.4987
head 8.67625 -4.03538 5.47898
rclavicle -5.61567e-015 1.98785e-014
rhumerus -38.999 8.59937 -80.4967
rradius 23.0535
rwrist 3.78243
rhand -20.412 3.39304
rfingers 7.12502
rthumb 5.94203 -26.5036
lclavicle -5.61567e-015 1.98785e-014
lhumerus -29.6138 -26.7962 73.7605
lradius 66.0635
lwrist 24.8332
lhand -16.7141 17.219
lfingers 7.12502
lthumb 9.51123 46.9843
rfemur -26.7013 -6.82535 29.9747
rtibia 47.6657
rfoot -28.7338 -22.0422
rtoes 31.1402
lfemur -13.5663 8.23921 -17.4949
ltibia 70.4605
lfoot -10.9091 -1.87549
ltoes -31.4824
1838
root -33.5641 15.9511 -5.5533 1622.23 -74.2996 172.271
lowerback -2.12641 -0.418479 -2.0002
upperback 5.14659 -0.670808 1.91963
thorax 6.59583 -0.537942 3.06913
lowerneck -3.88384 -3.31522 -1.06926
upperneck 22.458 -10.408 18.5417
head 8.70957 -4.05219 5.50691
rclavicle -1.50579e-014 -1.59028e-014
rhumerus -38.4242 7.88771 -80.5314
rradius 23.7505
rwrist 3.10672
rhand -21.0067 3.72689
rfingers 7.12502
rthumb 5.36791 -26.1851
lclavicle -1.50579e-014 -1.59028e-014
lhumerus -30.8849 -26.6404 74.9519
lradius 63.5805
lwrist 25.0388
lhand -16.345 18.1575
lfingers 7.12502
lthumb 9.86734 47.9063
rfemur -26.1748 -6.11664 30.0537
rtibia 47.4181
rfoot -28.5557 -21.5214
rtoes 30.8434
lfemur -15.3206 6.99187 -17.4764
ltibia 70.2441
lfoot -11.4487 -1.66642
ltoes -31.8144
1839
root -33.688 15.983 -5.54191 1621.6 -73.052 173.094
lowerback -2.0612 -0.390341 -1.76257
upperback 5.09034 -0.647334 1.93135
thorax 6.49275 -0.512531 2.94927
lowerneck -3.97161 -3.3176 -1.20976
upperneck 22.4267 -10.4181 18.5824
head 8.72434 -4.06758 5.54146
rclavicle -2.53947e-014 -3.18055e-015
rhumerus -37.9377 7.19949 -80.6209
rradius 24.5555
rwrist 2.20769
rhand -21.6149 4.0236
rfingers 7.12502
rthumb 4.78064 -25.9025
lclavicle -2.53947e-014 -3.18055e-015
lhumerus -32.1686 -26.3847 76.1509
lradius 61.2101
lwrist 25.2874
lhand -15.9576 19.0292
lfingers 7.12502
lthumb 10.2411 48.7599
rfemur -25.6449 -5.42706 30.0625
rtibia 47.1651
rfoot -28.2918 -20.8989
rtoes 30.5465
lfemur -16.8821 5.68589 -17.4522
ltibia 69.6305
lfoot -12.0212 -1.28952
ltoes -32.1841
